<svg width="70" height="70" viewBox="0 0 70 70" fill="none" xmlns="http://www.w3.org/2000/svg">
<path d="M34.631 31.5591L35.7295 48.0337H44.5207L45.6192 31.5591H34.631Z" fill="white"/>
<path d="M33.259 10.9829L34.3575 27.4575H45.8926L46.9907 10.9829H33.259Z" fill="white"/>
<path d="M50.0027 27.4575H68.0945L69.256 18.7486C69.5284 16.7059 68.9639 14.7646 67.6662 13.282C66.3679 11.7995 64.5184 10.9834 62.4575 10.9834H51.1013L50.0027 27.4575Z" fill="white"/>
<path d="M63.5555 54.9156H22.1858C20.1826 54.9156 18.2664 53.2375 18.0015 51.2514L17.5726 48.0337H31.6189L30.5203 31.5591H11.2382L13.9357 51.794C14.1947 53.7348 15.1918 55.5516 16.7438 56.9103C17.8941 57.9175 19.2549 58.5883 20.6792 58.8687C20.0992 59.9362 19.7692 61.1592 19.7692 62.4575C19.7692 66.6168 23.153 70 27.3117 70C31.4704 70 34.8542 66.6168 34.8542 62.4575C34.8542 61.2185 34.5519 60.0495 34.02 59.0171H44.7663C44.2344 60.0495 43.9321 61.2185 43.9321 62.4575C43.9321 66.6168 47.3154 70 51.4746 70C55.6333 70 59.0166 66.6168 59.0166 62.4575C59.0166 61.2185 58.7143 60.0495 58.1829 59.0171H63.5555C64.6882 59.0171 65.6063 58.0985 65.6063 56.9663C65.6063 55.8336 64.6882 54.9156 63.5555 54.9156Z" fill="white"/>
<path d="M8.06587 7.7652L10.6913 27.4575H30.2469L29.1483 10.9829H12.6326L12.1317 7.22313C11.5912 3.17284 8.77136 0 5.71175 0H2.05078C0.918045 0 0 0.918045 0 2.05078C0 3.18352 0.918045 4.10156 2.05078 4.10156H5.71175C6.36971 4.10156 7.76253 5.49278 8.06587 7.7652Z" fill="white"/>
<path d="M49.7293 31.5591L48.6313 48.0337H58.0643C60.0222 48.0337 61.955 47.2855 63.5069 45.9274C65.0589 44.5687 66.056 42.7513 66.3145 40.8106L67.5481 31.5591H49.7293Z" fill="white"/>
</svg>
